HIERARCHY
ROOT Hips
{
	OFFSET -3.958830 18.904000 13.208200
	CHANNELS 6 Xposition Yposition Zposition Zrotation Yrotation Xrotation 
	JOINT LHipJoint
	{
		OFFSET 0.000000 0.000000 0.000000
		CHANNELS 3 Zrotation Yrotation Xrotation
		JOINT LeftUpLeg
		{
			OFFSET 1.800000 -1.400000 0.085000
			CHANNELS 3 Zrotation Yrotation Xrotation
			JOINT LeftLeg
			{
				OFFSET 2.215000 -6.000000 0.000000
				CHANNELS 3 Zrotation Yrotation Xrotation
				JOINT LeftFoot
				{
					OFFSET 2.500000 -6.900000 0.000000
					CHANNELS 3 Zrotation Yrotation Xrotation
					JOINT LeftToeBase
					{
						OFFSET 0.200000 -0.500000 1.950000
						CHANNELS 3 Zrotation Yrotation Xrotation
						End Site
						{
							OFFSET 0.000000 0.000000 0.000000
						}
					}
				}
			}
		}
	}
	JOINT RHipJoint
	{
		OFFSET 0.000000 0.000000 0.000000
		CHANNELS 3 Zrotation Yrotation Xrotation
		JOINT RightUpLeg
		{
			OFFSET -1.800000 -1.400000 0.085000
			CHANNELS 3 Zrotation Yrotation Xrotation
			JOINT RightLeg
			{
				OFFSET -2.215000 -6.000000 0.000000
				CHANNELS 3 Zrotation Yrotation Xrotation
				JOINT RightFoot
				{
					OFFSET -2.500000 -6.900000 0.000000
					CHANNELS 3 Zrotation Yrotation Xrotation
					JOINT RightToeBase
					{
						OFFSET -0.200000 -0.500000 1.950000
						CHANNELS 3 Zrotation Yrotation Xrotation
						End Site
						{
							OFFSET 0.000000 0.000000 0.000000
						}
					}
				}
			}
		}
	}
	JOINT LowerBack
	{
		OFFSET 0.000000 0.000000 0.000000
		CHANNELS 3 Zrotation Yrotation Xrotation
		JOINT Spine
		{
			OFFSET -0.087000 1.940000 -0.288900
			CHANNELS 3 Zrotation Yrotation Xrotation
			JOINT Spine1
			{
				OFFSET 0.000000 1.950000 0.060000
				CHANNELS 3 Zrotation Yrotation Xrotation
				JOINT Neck
				{
					OFFSET 0.000000 0.000000 0.000000
					CHANNELS 3 Zrotation Yrotation Xrotation
					JOINT Neck1
					{
						OFFSET 0.000000 1.600000 0.340000
						CHANNELS 3 Zrotation Yrotation Xrotation
						JOINT Head
						{
							OFFSET 0.000000 1.667000 -0.240000
							CHANNELS 3 Zrotation Yrotation Xrotation
							End Site
							{
								OFFSET 0.000000 0.000000 0.000000
							}
						}
					}
				}
				JOINT LeftShoulder
				{
					OFFSET 0.000000 0.000000 0.000000
					CHANNELS 3 Zrotation Yrotation Xrotation
					JOINT LeftArm
					{
						OFFSET 2.700000 1.550000 -0.730000
						CHANNELS 3 Zrotation Yrotation Xrotation
						JOINT LeftForeArm
						{
							OFFSET 5.450000 0.000000 0.000000
							CHANNELS 3 Zrotation Yrotation Xrotation
							JOINT LeftHand
							{
								OFFSET 3.450000 0.000000 0.000000
								CHANNELS 3 Zrotation Yrotation Xrotation
								JOINT LeftHandIndex1
								{
									OFFSET 0.750000 0.000000 0.000000
									CHANNELS 3 Zrotation Yrotation Xrotation
									End Site
									{
										OFFSET 0.000000 0.000000 0.000000
									}
								}
							}
						}
					}
				}
				JOINT RightShoulder
				{
					OFFSET 0.000000 0.000000 0.000000
					CHANNELS 3 Zrotation Yrotation Xrotation
					JOINT RightArm
					{
						OFFSET -2.700000 1.550000 -0.730000
						CHANNELS 3 Zrotation Yrotation Xrotation
						JOINT RightForeArm
						{
							OFFSET -5.450000 0.000000 0.000000
							CHANNELS 3 Zrotation Yrotation Xrotation
							JOINT RightHand
							{
								OFFSET -3.450000 0.000000 0.000000
								CHANNELS 3 Zrotation Yrotation Xrotation
								JOINT RightHandIndex1
								{
									OFFSET -0.750000 0.000000 0.000000
									CHANNELS 3 Zrotation Yrotation Xrotation
									End Site
									{
										OFFSET 0.000000 0.000000 0.000000
									}
								}
							}
						}
					}
				}
			}
		}
	}
}
MOTION
Frames: 10
Frame Time: 0.016667
-0.402210 16.132690 -3.630310 -4.842160 3.769085 7.301063 -15.584402 9.863151 6.072720 24.035253 -4.921838 -54.812333 -4.162196 13.588573 47.243000 0.029075 9.781137 1.206762 0.749850 0.326450 0.360400 18.579858 -7.797814 4.233486 -25.603503 6.674641 -48.296711 11.969937 -12.585474 41.571083 -0.730303 -7.076398 2.011559 0.283180 0.448730 0.187450 -3.490370 -1.423052 -10.035123 6.910106 -1.009655 38.730139 -6.829184 4.027686 5.750935 2.329474 -1.653062 -11.670733 -5.906278 -1.804597 39.713074 9.706700 -9.401960 -13.024360 -19.146627 -33.287296 3.609102 -17.161301 -27.689046 -3.631298 -86.987030 -66.953969 54.179074 -3.711386 3.342782 0.589500 0.123580 -0.159890 0.403130 14.281772 38.099699 5.456641 12.884147 25.367351 -13.035390 117.901916 71.416854 84.020719 2.359500 0.005917 -0.215060 0.447740 -0.109240 -0.152940 
-0.461900 16.063010 -3.579010 -4.612911 5.418774 5.757960 -15.552354 10.001219 5.967370 22.454304 -5.022138 -54.974724 -1.089602 12.693623 49.810455 0.013383 9.809277 1.161794 0.806070 0.368430 0.413020 18.578583 -7.821965 4.315013 -26.849646 7.285527 -47.544528 12.780966 -13.768780 44.501453 -0.897076 -7.648983 1.813362 0.303210 0.373280 0.151390 -3.526015 -1.513571 -10.141526 7.782206 -1.397973 38.926302 -7.429134 4.294253 7.582427 2.672255 -1.490194 -13.712227 -6.657313 -1.667343 44.414372 11.677680 -10.427750 -14.438760 -21.513693 -36.174332 3.472918 -19.758868 -27.825493 -5.782187 -62.055443 -59.142568 31.547593 -3.346534 3.422971 0.682280 0.032080 -0.103860 0.391690 15.997542 40.649974 7.763698 12.596945 28.233701 -10.671098 66.618342 77.428336 42.035885 1.468000 -2.249068 -0.220330 0.469690 -0.127130 -0.179560 
-0.522770 16.004370 -3.487890 -4.414349 7.051884 3.565592 -15.544601 10.332629 5.755975 20.770197 -4.874928 -53.846468 1.850912 11.615427 51.624720 -0.019738 9.725116 1.150271 0.864180 0.423020 0.494540 18.514838 -7.950461 4.326743 -27.726723 8.063497 -45.643784 13.567159 -14.873456 47.194325 -1.092815 -8.130312 1.652228 0.317190 0.273730 0.104350 -3.443548 -1.722861 -10.192214 8.170328 -0.983807 39.128983 -7.047320 5.026653 8.801910 3.238846 -1.144348 -15.889315 -7.345211 -1.665705 51.202651 13.707340 -11.211410 -17.149790 -25.154393 -38.479721 4.864774 -26.024229 -28.778644 -6.756497 -39.720176 -49.915243 14.555581 -3.133307 3.188465 0.813730 -0.085070 -0.001570 0.374290 18.714243 43.424168 8.631484 15.900309 28.939554 -15.776400 37.780400 65.138359 17.992904 1.146915 -2.152222 -0.229560 0.523550 -0.154670 -0.214930 
-0.590060 15.945470 -3.390170 -4.296183 8.713127 1.462960 -15.564610 10.646880 5.590574 19.767615 -4.783955 -52.708722 4.160123 10.673000 53.038597 0.030594 9.599548 1.147064 0.979110 0.576310 0.594510 18.433024 -8.039251 4.303689 -27.855842 8.551353 -43.956534 13.824951 -15.922415 50.055616 -1.309982 -8.626727 1.485915 0.359650 0.133700 0.086670 -3.304293 -2.020742 -10.231492 7.787379 -0.631519 38.794449 -6.399726 5.300512 10.271777 3.706726 -0.236857 -18.541207 -6.721043 -1.756744 57.617474 14.720970 -11.322830 -18.670100 -28.515403 -39.900848 6.250098 -30.699315 -30.174985 -5.955544 -22.727676 -38.344560 4.731868 -3.005561 3.016182 0.870030 -0.191990 0.122140 0.382990 21.299300 44.682723 10.146816 18.758347 30.547141 -16.661475 24.127852 55.740694 8.777845 1.188435 -1.872638 -0.158410 0.503010 -0.244390 -0.219460 
-0.662100 15.895540 -3.271190 -4.196836 9.973656 -1.287322 -15.578259 11.054157 5.350433 19.170883 -4.305573 -50.580890 6.091211 9.998271 54.450838 0.100132 9.551599 1.101930 1.129380 0.785020 0.668540 18.334164 -8.244314 4.188735 -27.378567 9.002272 -41.259289 13.926034 -16.640362 52.321764 -1.510940 -9.004854 1.358788 0.433090 0.008270 0.090080 -3.164394 -2.282075 -10.175484 7.306848 0.152963 38.167634 -5.090604 5.778046 12.800158 3.705538 0.091967 -21.165922 -7.111216 -1.412591 63.687418 16.965210 -11.545440 -20.741970 -30.918256 -40.661308 7.203195 -34.118535 -31.869899 -4.138137 -11.922318 -28.586141 0.620556 -2.950034 2.924509 0.910810 -0.294180 0.248200 0.417790 23.983144 45.335155 12.346750 20.894355 31.097545 -17.234010 14.945503 48.093171 3.828648 1.231314 -1.711163 -0.060560 0.473180 -0.339710 -0.196040 
-0.731300 15.839540 -3.146710 -4.224883 11.087696 -3.786987 -15.564954 11.339445 5.147200 19.183501 -3.888864 -48.655672 7.833536 9.458822 56.061559 0.129847 9.690845 1.032450 1.192300 0.856240 0.716980 18.283774 -8.474851 4.045978 -26.327709 9.125308 -39.033036 12.967936 -17.202420 55.213703 -1.674305 -9.406560 1.235309 0.466600 -0.035890 0.073650 -3.132980 -2.335781 -10.097838 7.064341 0.410427 36.944298 -4.477416 5.802965 14.282851 3.547100 0.337118 -22.718973 -6.947955 -0.877854 68.877231 18.699630 -11.429590 -21.534120 -32.990861 -40.537579 7.677198 -36.714267 -31.020437 -3.032762 -7.680591 -22.820172 -0.631648 -2.952067 2.848368 0.972530 -0.350090 0.306300 0.425130 26.528662 44.793555 14.125606 24.711189 31.751473 -16.369429 10.513532 43.350022 1.702319 1.291689 -1.568222 -0.053810 0.499900 -0.367950 -0.205500 
-0.786560 15.777400 -3.011700 -4.266959 11.961587 -6.271029 -15.543839 11.628637 4.909546 19.517465 -3.742426 -46.074584 8.964811 8.926634 57.037018 0.144657 9.764175 0.995902 1.240490 0.886170 0.797870 18.238753 -8.780043 3.854898 -25.171620 8.634730 -36.724519 11.371027 -17.598225 58.049086 -1.813199 -9.777184 1.119534 0.481010 -0.089650 0.073840 -3.124077 -2.286541 -9.944947 6.685441 0.494542 35.305165 -4.196645 5.517278 13.967724 3.576604 0.713757 -22.732312 -5.567831 -1.087410 73.555362 17.944380 -10.912800 -20.872840 -35.453440 -39.185651 7.695156 -39.101969 -27.769794 -2.762070 -7.461422 -20.150275 -0.864614 -2.946255 2.824107 1.018400 -0.379220 0.351910 0.417990 28.983916 43.097539 14.555320 30.243638 30.405534 -13.875942 11.843444 39.952607 1.595893 1.404213 -1.510935 -0.051430 0.497780 -0.400430 -0.239520 
-0.830980 15.727100 -2.872520 -4.408559 12.133863 -9.178354 -15.517148 11.979508 4.627446 20.226681 -3.454676 -42.877402 9.954681 8.451846 58.086543 0.134884 9.914377 0.916100 1.230250 0.837900 0.840280 18.192088 -9.153724 3.583539 -23.648706 8.051035 -33.653364 9.537568 -17.671228 60.436597 -1.911184 -10.040917 1.022047 0.461670 -0.124390 0.088810 -3.120337 -2.227373 -9.691272 6.533407 0.788731 34.115822 -3.611526 5.477715 11.564344 3.439285 0.757989 -21.067636 -4.838214 -1.006473 78.257944 17.475030 -10.274550 -19.969750 -37.655400 -36.213999 7.220405 -42.708692 -23.852983 -2.611671 -8.538378 -19.312553 -0.926377 -2.962828 2.806741 1.085100 -0.394250 0.378080 0.378610 31.568247 40.003428 13.706109 35.882770 25.573710 -12.368518 18.728132 39.768237 3.066915 1.494791 -1.510984 -0.075840 0.483850 -0.377310 -0.289490 
-0.866820 15.684190 -2.717150 -4.383017 12.221966 -11.888363 -15.451389 12.306052 4.280740 20.664275 -3.216903 -39.290630 10.966095 7.825312 58.764217 0.169060 9.958204 0.890892 1.247950 0.847860 0.879450 18.185700 -9.610543 3.295595 -22.526171 7.111799 -30.427667 7.530926 -17.538074 62.457467 -2.001262 -10.239602 0.959042 0.458510 -0.150570 0.105300 -3.229129 -2.007692 -9.369811 6.607113 0.700395 31.856072 -3.407614 4.905879 9.531646 3.133222 0.434927 -18.407100 -4.826513 -0.286815 82.058579 16.922140 -9.384430 -18.901960 -37.471801 -32.026731 6.231554 -46.002748 -19.955976 -2.593963 -11.912131 -19.379110 -0.587697 -2.981912 2.807619 1.105400 -0.400330 0.408070 0.370090 32.029039 35.759725 12.162968 42.031004 20.861689 -11.582888 26.447075 40.917495 4.760817 1.632225 -1.528856 -0.064530 0.467660 -0.389520 -0.305190 
-0.900840 15.649810 -2.574240 -4.576229 12.541647 -14.329564 -15.395170 12.583092 3.968208 21.163271 -2.984566 -36.158576 12.075572 7.046904 58.930356 0.141419 9.986110 0.885287 1.216150 0.752000 0.918900 18.182355 -10.006804 3.046347 -21.641594 6.221221 -27.235232 6.173897 -17.660842 63.962980 -2.063326 -10.445908 0.896163 0.419480 -0.156490 0.114570 -3.329136 -1.806872 -9.072109 6.813833 0.573841 29.643035 -3.415983 4.377864 7.345960 3.027021 0.390016 -16.072500 -4.130267 -0.507970 85.372570 15.329250 -9.024920 -16.580590 -35.941501 -27.182910 5.123329 -49.326453 -16.659951 -2.465666 -15.967707 -18.686778 -0.226901 -3.049429 2.770628 1.149440 -0.387890 0.393610 0.338540 30.733628 30.767817 10.590687 47.789891 16.147341 -11.473401 34.555152 41.494415 6.665590 1.768044 -1.518029 -0.107770 0.452610 -0.367120 -0.359310 
